<svg version="1.1" id="Layer_1" xmlns="http://www.w3.org/2000/svg" xmlns:xlink="http://www.w3.org/1999/xlink" x="0px" y="0px"
	 width="100%" viewBox="0 0 1024 1024" enable-background="new 0 0 1024 1024" xml:space="preserve">
<path fill="#000000" opacity="1.000000" stroke="none" 
	d="
M346.596130,603.269775 
	C341.259705,584.118896 335.137695,565.604431 330.844543,546.596741 
	C325.748718,524.035217 321.013885,501.392303 315.943024,478.824982 
	C310.394287,454.131042 306.600281,429.141357 302.447968,404.194977 
	C300.286835,391.211456 297.839874,378.136475 291.097626,366.149506 
	C283.047302,351.836945 291.592773,334.361603 307.525330,330.461182 
	C317.483734,328.023285 327.676208,328.108337 337.822815,327.805267 
	C356.138031,327.258148 374.454590,326.657715 392.642303,324.277069 
	C417.896851,320.971466 442.807831,316.101044 467.641754,310.219543 
	C492.527191,304.325867 518.054871,301.069092 543.258545,296.512878 
	C570.684631,291.554901 598.513733,290.844482 625.946472,286.381317 
	C643.903625,283.459839 662.125244,283.421051 680.292358,284.109711 
	C698.044922,284.782715 719.383728,302.468475 722.973572,319.884674 
	C727.432434,341.516846 731.316284,363.267181 735.503418,384.955902 
	C738.147278,398.650604 741.489624,412.241150 743.443237,426.030823 
	C746.033264,444.312378 750.668518,462.174988 753.543152,480.398682 
	C755.665527,493.853149 759.026489,507.161072 762.601562,520.326294 
	C768.053284,540.402039 771.152222,560.979797 776.247864,581.119995 
	C779.264648,593.043884 782.275024,604.970947 785.115906,616.937561 
	C789.424377,635.085876 791.392639,653.688354 795.416626,671.876465 
	C798.936462,687.785583 804.109863,703.300903 807.435120,719.283447 
	C809.397278,728.714294 807.132751,737.014587 800.374573,743.574097 
	C793.657959,750.093323 785.356018,751.686401 776.260132,748.937561 
	C769.703186,746.956116 766.531311,741.936768 763.750732,736.219360 
	C757.656311,723.688354 754.452087,710.178589 751.080872,696.858215 
	C743.453979,666.723389 736.966187,636.321350 731.306824,605.724426 
	C727.103821,583.001160 720.895752,560.655029 716.336304,537.988953 
	C713.717041,524.968384 713.206848,511.527527 710.668640,498.485748 
	C707.012634,479.700348 705.155701,460.639069 700.829285,441.940186 
	C696.186584,421.874603 693.222351,401.426636 688.963257,381.264374 
	C685.739746,366.004547 683.714966,350.480927 678.888489,335.553741 
	C674.388550,321.636230 663.274475,314.864746 649.273010,317.213257 
	C632.199951,320.076965 615.121155,322.975708 598.163818,326.441620 
	C577.591248,330.646423 556.750732,333.162201 536.117126,336.962128 
	C511.836548,341.433716 488.188385,348.364410 464.441559,354.909698 
	C449.667999,358.981750 434.615509,361.561035 419.539398,364.072235 
	C406.404266,366.260132 393.344421,368.790833 380.339020,371.672028 
	C370.441589,373.864716 360.418793,375.507202 350.423553,377.230774 
	C348.081055,377.634705 345.981934,378.596619 343.750397,379.216431 
	C340.756500,380.048004 340.014923,381.980957 340.108032,384.847443 
	C340.363647,392.718140 342.356934,400.296204 343.974121,407.911987 
	C347.114380,422.700867 350.559113,437.426819 354.015198,452.146515 
	C357.805969,468.291656 361.835785,484.380859 365.604797,500.530945 
	C368.855621,514.460571 371.741699,528.476013 375.049561,542.391541 
	C379.772278,562.259155 384.866821,582.038757 389.554230,601.914490 
	C394.320343,622.124023 400.158905,642.080994 403.313782,662.676880 
	C404.699646,671.724182 408.669830,680.142029 411.528198,688.819946 
	C416.679749,704.460083 420.757538,720.461121 426.933685,735.753479 
	C431.486938,747.027588 438.694458,755.966248 451.106567,758.862488 
	C458.197052,760.517029 465.442810,758.531433 472.320374,756.965027 
	C486.610382,753.710449 501.012390,751.247864 515.482178,749.083252 
	C535.215454,746.131287 554.932617,743.051941 574.705322,740.388367 
	C592.668457,737.968567 610.591125,735.337280 628.488586,732.470520 
	C638.823608,730.815063 649.232178,729.634033 659.508850,727.559082 
	C666.757446,726.095581 671.932617,722.182678 674.959473,715.443970 
	C677.028198,710.838257 676.183411,707.953369 672.049561,705.197266 
	C668.448120,702.795898 664.554321,701.666199 660.206238,702.246765 
	C640.415588,704.889038 620.558228,707.111877 600.849243,710.263367 
	C581.968140,713.282410 563.158264,717.321411 544.039856,717.653198 
	C522.799194,718.021667 501.480194,721.161438 480.257202,716.879089 
	C470.632538,714.937134 463.222382,709.954590 457.089935,702.406189 
	C443.489899,685.666077 435.038910,666.405518 429.044342,645.952026 
	C422.199280,622.596680 418.476349,598.560242 413.943481,574.703125 
	C410.465729,556.399292 406.672791,538.152161 403.445404,519.804932 
	C400.129639,500.955322 396.811523,482.078094 394.496490,463.090759 
	C393.077850,451.455658 396.121796,440.366791 405.649841,432.466125 
	C414.822327,424.860352 426.933594,425.676392 435.701813,433.736237 
	C443.371429,440.786194 447.982361,449.644623 449.662109,459.702637 
	C457.668365,507.642639 466.874969,555.357117 476.242126,603.041199 
	C478.708405,615.595764 481.979431,627.965027 485.542603,640.285339 
	C489.068420,652.476379 497.573029,657.976379 508.815338,660.974426 
	C522.016602,664.494934 535.250000,663.054321 548.495850,661.385925 
	C574.124939,658.157715 599.133789,651.563110 624.575989,647.356018 
	C643.948669,644.152466 663.298462,641.458191 683.172729,642.461060 
	C709.430115,643.786011 730.850769,666.243713 736.134766,686.587341 
	C739.743896,700.482544 741.197510,714.138855 738.749573,728.498840 
	C735.170044,749.496460 722.439331,761.422852 703.014587,767.139343 
	C680.533386,773.755371 658.158264,781.078003 634.908386,784.463318 
	C608.259155,788.343689 581.794800,793.537842 554.832214,795.342285 
	C534.330444,796.714233 514.428528,801.711243 494.664612,807.227356 
	C477.476440,812.024597 460.133148,816.449158 442.058472,815.123047 
	C423.533997,813.763916 407.502930,806.851685 395.544128,792.130249 
	C390.094971,785.422241 388.780121,777.136292 387.286499,768.877380 
	C381.235779,735.420654 372.667633,702.601257 362.219330,670.243103 
	C356.583771,652.789978 354.111786,634.556519 349.963074,616.732056 
	C348.945465,612.360046 347.800446,608.017639 346.596130,603.269775 
z"/>
<path fill="#000000" opacity="1.000000" stroke="none" 
	d="
M633.032471,549.310547 
	C606.044800,547.436340 582.621338,527.653137 575.551453,502.007019 
	C571.453979,487.143494 570.257629,472.662720 575.710571,457.877472 
	C577.228638,453.761353 577.144165,449.048859 577.755310,444.604523 
	C580.273010,426.296967 595.163513,417.609680 611.503052,419.539246 
	C639.994690,422.903778 657.668823,440.952057 669.501343,465.427612 
	C676.419250,479.737488 679.466675,495.000305 676.105591,511.069855 
	C671.378235,533.671875 655.134094,548.376038 633.032471,549.310547 
M597.362793,478.076782 
	C601.215515,493.410522 610.142029,504.208954 625.444702,509.137360 
	C633.619812,511.770233 641.614868,507.785431 642.615723,500.382324 
	C644.917664,483.355499 637.165955,459.078308 612.709290,454.685913 
	C600.817505,452.550171 594.181885,457.775391 595.896179,470.917053 
	C596.175171,473.055786 596.758728,475.154816 597.362793,478.076782 
z"/>
<path fill="#000000" opacity="1.000000" stroke="none" 
	d="
M628.883545,562.971375 
	C634.500671,555.828735 641.763855,553.379700 649.998169,555.122070 
	C658.334900,556.886108 663.436768,562.682739 665.971008,570.753601 
	C673.946106,596.152100 657.286682,625.014648 631.351196,630.781921 
	C619.566589,633.402405 608.579346,630.684631 597.871887,625.947998 
	C585.963135,620.680054 575.260620,613.207092 563.718506,607.263977 
	C554.048462,602.284729 551.532349,600.041138 549.814575,613.211121 
	C548.895081,620.260803 544.380188,626.043579 538.918274,630.687500 
	C534.422729,634.509705 529.178040,634.251648 524.383423,630.240601 
	C515.038330,622.422791 512.436768,612.262573 514.051025,600.584473 
	C518.254944,570.171021 543.215637,554.771973 572.415955,564.558167 
	C583.833313,568.384583 594.334473,574.191956 605.148621,579.333679 
	C608.596741,580.973083 612.209839,582.268188 615.759399,583.690857 
	C618.459717,584.773132 620.031372,583.952820 621.059143,581.098816 
	C623.249390,575.016663 624.675964,568.584351 628.883545,562.971375 
z"/>
<path fill="#000000" opacity="1.000000" stroke="none" 
	d="
M527.031189,431.792206 
	C532.706543,430.422882 538.047180,430.545685 543.364624,430.893250 
	C548.236511,431.211670 551.967285,433.508545 553.678894,438.275238 
	C555.286621,442.752777 553.536316,446.350891 550.392212,449.552490 
	C538.516968,461.644806 524.064270,468.545776 507.399658,471.033691 
	C506.741394,471.131989 506.073303,471.162811 505.412964,471.249329 
	C504.223633,471.405121 503.076477,471.692566 502.607758,472.972321 
	C502.213959,474.047455 502.675476,474.976532 503.469574,475.642334 
	C504.564056,476.559998 505.699799,476.014648 506.703064,475.398895 
	C512.783325,471.666992 519.687378,470.314758 526.454163,468.612946 
	C528.521851,468.092896 530.768188,467.737823 532.861145,467.965515 
	C539.406311,468.677643 544.764221,471.455078 546.959717,478.137909 
	C549.002808,484.356964 546.082886,489.182648 541.768250,493.271820 
	C534.059265,500.578125 524.285706,500.704651 514.572388,500.584229 
	C509.227905,500.517944 508.437805,501.262238 509.833527,506.600189 
	C511.347931,512.391968 512.892700,518.175781 514.422913,523.963440 
	C516.216858,530.748535 518.236206,531.433105 523.455017,526.849548 
	C528.610962,522.321228 533.870239,517.992188 540.572388,515.908691 
	C548.175415,513.545105 555.953247,515.917725 560.704407,522.024963 
	C565.259827,527.880615 565.584045,535.851868 561.054138,542.580994 
	C555.406738,550.970215 546.955872,555.593811 537.619446,558.658569 
	C533.362061,560.056091 528.988342,561.066528 524.736389,562.570496 
	C507.929047,568.516113 490.127777,556.755371 486.797668,537.471252 
	C483.713074,519.608765 480.945038,501.691681 477.884216,483.824890 
	C477.327667,480.576294 476.289764,477.348114 475.030487,474.293365 
	C470.978638,464.464325 474.762299,452.771881 484.110779,447.598755 
	C487.884033,445.510742 491.803558,443.416504 495.919830,442.272003 
	C506.354889,439.370636 516.011353,434.240082 527.031189,431.792206 
z"/>
<path fill="#000000" opacity="1.000000" stroke="none" 
	d="
M543.233948,230.963852 
	C551.355530,247.061890 544.985718,262.525726 529.190735,265.660858 
	C522.747314,266.939819 516.841614,264.794495 511.574707,261.579376 
	C490.123840,248.484924 466.159943,241.867462 442.562317,234.287643 
	C427.358063,229.403885 412.067780,224.784897 396.899353,219.794037 
	C387.676971,216.759628 379.295807,211.870743 371.061859,206.803940 
	C367.492950,204.607788 364.380310,201.832291 362.634644,197.843369 
	C361.144043,194.437317 362.062805,192.259735 365.896423,191.881317 
	C389.482727,189.553177 413.059143,189.881378 436.716888,191.208588 
	C452.229523,192.078873 467.342590,195.489227 482.636841,197.459076 
	C506.457886,200.527145 528.019653,210.310074 543.233948,230.963852 
z"/>
<path fill="#000000" opacity="1.000000" stroke="none" 
	d="
M223.941818,285.885101 
	C247.854752,268.960114 274.064178,258.235443 302.359497,252.767105 
	C312.148376,250.875320 322.208740,250.291931 331.694885,255.124390 
	C340.818390,259.772095 346.152039,268.329590 345.176239,278.184113 
	C344.175598,288.289368 338.353210,294.900757 328.987396,298.465240 
	C327.129883,299.172150 325.167664,299.717926 323.204803,300.017242 
	C286.808746,305.567017 252.009216,316.754974 217.693100,329.701935 
	C212.099319,331.812378 206.642059,334.343475 200.697968,335.499664 
	C196.261810,336.362518 192.235367,335.768463 189.419037,332.096497 
	C186.495239,328.284393 187.515869,324.085205 189.720062,320.352112 
	C195.299454,310.902740 203.342026,303.571198 211.290512,296.223663 
	C215.196106,292.613312 219.511261,289.446075 223.941818,285.885101 
z"/>
<path fill="#000000" opacity="1.000000" stroke="none" 
	d="
M206.356873,412.374695 
	C211.679611,407.323669 215.386047,401.224915 221.158875,397.065247 
	C232.649124,388.785950 247.536118,390.276917 256.286469,400.716980 
	C262.495331,408.124878 262.772400,418.265991 256.334900,425.408539 
	C241.284454,442.107422 226.782959,459.350006 210.511063,474.884552 
	C192.954758,491.645325 178.570358,511.025848 163.481949,529.849304 
	C160.569565,533.482666 157.476120,536.979797 154.318985,540.403992 
	C152.926285,541.914490 151.530807,544.275574 148.974854,543.088013 
	C146.624634,541.996033 146.934616,539.465881 146.988861,537.324219 
	C147.384552,521.700867 149.862366,506.549072 156.663361,492.262512 
	C159.879852,485.505798 162.631775,478.523285 165.466278,471.590759 
	C168.446548,464.301605 172.092941,457.444000 177.103302,451.305267 
	C187.299316,438.813202 194.260468,423.887390 206.356873,412.374695 
z"/>
<path fill="#000000" opacity="1.000000" stroke="none" 
	d="
M254.763046,515.759277 
	C263.924194,508.020996 273.678345,507.360413 281.896027,513.664001 
	C289.991974,519.874146 291.991150,529.276367 287.664093,539.707397 
	C284.362030,547.667542 278.390198,553.891541 274.079224,561.193115 
	C263.111816,579.768555 254.995972,599.211914 249.982239,620.469543 
	C245.841873,638.024109 241.441635,655.645447 236.333313,673.013367 
	C235.493500,675.868591 234.218979,678.645142 232.138245,680.890564 
	C231.031433,682.084961 229.928116,683.657715 227.999725,683.098145 
	C226.388199,682.630493 225.874130,681.043701 225.599380,679.559021 
	C225.055008,676.617493 224.591736,673.658386 224.188461,670.693848 
	C222.977219,661.790100 221.262802,652.875305 221.959610,643.871887 
	C222.804703,632.952454 220.223892,622.345886 219.341721,611.612671 
	C218.666092,603.392334 220.284409,595.807373 221.419540,587.953613 
	C224.022003,569.947327 231.237732,553.903381 241.139313,538.808228 
	C245.961899,531.456055 248.935593,522.969116 254.763046,515.759277 
z"/>
<path fill="#000000" opacity="1.000000" stroke="none" 
	d="
M572.935547,210.052124 
	C568.692444,207.375198 564.771912,204.850693 560.774536,202.454422 
	C554.666382,198.792862 550.003601,192.772888 551.881287,189.835297 
	C555.328613,184.441864 561.449402,185.166306 566.391174,186.172363 
	C579.727356,188.887405 593.064148,191.750595 605.803772,196.872238 
	C622.552124,203.605453 638.034424,212.163269 649.880676,226.148834 
	C655.671265,232.985077 660.874817,240.305206 658.004089,250.056503 
	C654.410767,262.262054 640.870056,266.738922 630.697510,258.995789 
	C623.422974,253.458664 616.012268,248.059433 609.859619,241.143433 
	C603.949341,234.499832 596.330994,229.822006 589.372620,224.409073 
	C583.700256,219.996460 578.567932,215.019989 572.935547,210.052124 
z"/>
<path fill="#000000" opacity="1.000000" stroke="none" 
	d="
M324.249481,679.880859 
	C325.181976,694.453979 326.790894,708.508911 326.290985,722.689758 
	C326.067078,729.040894 325.140839,735.265503 324.192444,741.510620 
	C323.887299,743.519836 323.092926,745.337524 322.006775,747.039307 
	C319.817139,750.470215 316.809143,752.952881 312.657745,752.740967 
	C308.290619,752.518066 305.875214,749.262939 304.736572,745.422485 
	C302.469635,737.776672 300.021057,730.124634 298.606049,722.301758 
	C296.883698,712.779480 293.790863,703.634705 291.835846,694.205261 
	C290.236511,686.491516 289.514954,678.757874 293.115326,671.246643 
	C296.364166,664.468933 301.882599,660.436707 308.779358,658.254211 
	C314.870789,656.326538 319.910645,659.181519 322.312531,665.157715 
	C324.168793,669.776245 324.154236,674.582397 324.249481,679.880859 
z"/>
<path fill="#000000" opacity="1.000000" stroke="none" 
	d="
M501.652771,384.591339 
	C509.504272,379.364502 517.494507,375.478149 526.645996,374.323029 
	C531.330139,373.731750 535.280518,374.870239 538.085876,378.726013 
	C540.734741,382.366913 540.350220,386.286346 538.173645,389.994659 
	C536.750183,392.419922 535.244385,394.888397 533.331970,396.920074 
	C522.732544,408.180450 511.682343,419.035645 499.707458,428.790192 
	C488.621094,437.820953 473.556946,432.703430 471.155975,419.674408 
	C469.937592,413.062683 472.274200,407.545959 477.059448,403.043396 
	C484.476196,396.064850 493.058655,390.615906 501.652771,384.591339 
z"/>
</svg>